<?xml version="1.0" encoding="utf-8"?>
<!-- Generator: Adobe Illustrator 24.3.0, SVG Export Plug-In . SVG Version: 6.00 Build 0)  -->
<svg version="1.1" id="圖層_1" xmlns="http://www.w3.org/2000/svg" xmlns:xlink="http://www.w3.org/1999/xlink" x="0px" y="0px"
	 viewBox="0 0 100 100" style="enable-background:new 0 0 100 100;" xml:space="preserve">
<style type="text/css">
	.st0{fill:#AFAFAF;}
	.st1{fill:#FFFFFF;}
	.st2{fill:#204A6A;}
</style>
<circle class="st0" cx="50" cy="49.9" r="38.3"/>
<circle class="st1" cx="50" cy="49.9" r="32"/>
<circle class="st2" cx="50" cy="45.3" r="3"/>
<path class="st2" d="M66.2,56.4c-0.2,0-0.5-0.1-0.7-0.2c-0.6-0.4-0.8-1.1-0.4-1.7l0,0c3.5-5.8,3.5-13.1-0.2-18.7
	c-0.4-0.5-0.4-1.3,0.1-1.8c0.5-0.4,1.3-0.4,1.8,0.1c0.1,0.1,0.1,0.2,0.2,0.3c4.2,6.5,4.3,14.8,0.2,21.4C67,56.2,66.6,56.4,66.2,56.4
	z"/>
<path class="st2" d="M34,56.8c-0.4,0-0.8-0.2-1-0.6c-4.2-6.5-4.3-14.8-0.2-21.4c0.4-0.6,1.1-0.8,1.7-0.4c0.6,0.4,0.8,1.1,0.4,1.7
	l0,0c-3.5,5.8-3.5,13,0.2,18.7c0.4,0.6,0.2,1.4-0.4,1.7C34.5,56.7,34.3,56.8,34,56.8z"/>
<path class="st2" d="M37.7,54.4c-0.4,0-0.8-0.2-1.1-0.6c-3.3-5.1-3.4-11.6-0.2-16.8c0.4-0.6,1.1-0.8,1.7-0.4
	c0.6,0.4,0.8,1.1,0.4,1.7l0,0c-2.7,4.3-2.6,9.8,0.2,14.1c0.4,0.6,0.2,1.3-0.4,1.7C38.2,54.3,38,54.4,37.7,54.4z"/>
<path class="st2" d="M62.5,54.1c-0.2,0-0.5-0.1-0.7-0.2c-0.6-0.4-0.8-1.1-0.4-1.7c2.7-4.3,2.6-9.8-0.2-14.1
	c-0.4-0.6-0.2-1.4,0.4-1.7s1.4-0.2,1.7,0.4c3.3,5.1,3.4,11.6,0.2,16.8C63.3,53.9,62.9,54.1,62.5,54.1z"/>
<path class="st2" d="M58.8,51.9c-0.2,0-0.5-0.1-0.7-0.2c-0.6-0.4-0.8-1.1-0.4-1.7l0,0c1.8-3,1.8-6.7-0.1-9.6
	c-0.4-0.6-0.2-1.4,0.4-1.7s1.4-0.2,1.7,0.4c2.4,3.7,2.5,8.5,0.2,12.2C59.7,51.7,59.3,51.9,58.8,51.9z"/>
<path class="st2" d="M41.3,52.1c-0.4,0-0.8-0.2-1-0.6c-2.4-3.7-2.5-8.5-0.2-12.2c0.4-0.6,1.1-0.8,1.7-0.4c0.6,0.4,0.8,1.1,0.4,1.7
	l0,0c-1.8,3-1.8,6.7,0.1,9.6c0.4,0.6,0.2,1.4-0.4,1.7C41.8,52,41.6,52.1,41.3,52.1z"/>
<path class="st2" d="M37.5,57.7h1.8v6.8h4.1L43.2,66h-5.7V57.7z"/>
<path class="st2" d="M46.3,57.7V66h-1.8v-8.3H46.3z"/>
<path class="st2" d="M50.3,65.9l-2.9-8.3h1.9l1.2,3.8c0.4,1.2,0.7,2.1,0.8,3l0,0c0.2-0.8,0.5-1.8,0.9-3l1.3-3.8h1.8l-3,8.3H50.3z"/>
<path class="st2" d="M62.1,62.4h-4v2.1h4.4L62.3,66h-5.8v-8.3h5.9v1.5h-4.1V61h4L62.1,62.4z"/>
</svg>
