<?xml version="1.0" encoding="utf-8"?>
<!-- Generator: Adobe Illustrator 24.3.0, SVG Export Plug-In . SVG Version: 6.00 Build 0)  -->
<svg version="1.1" id="圖層_1" xmlns="http://www.w3.org/2000/svg" xmlns:xlink="http://www.w3.org/1999/xlink" x="0px" y="0px"
	 viewBox="0 0 100 100" style="enable-background:new 0 0 100 100;" xml:space="preserve">
<style type="text/css">
	.st0{fill:#AFAFAF;}
	.st1{fill:#FFFFFF;}
	.st2{fill:#FFFFFF;stroke:#AFAFAF;stroke-linecap:round;stroke-linejoin:round;}
	.st3{fill:none;stroke:#AFAFAF;stroke-linecap:round;stroke-linejoin:round;}
	.st4{fill:#204A6A;}
</style>
<circle class="st0" cx="48" cy="49.9" r="38.3"/>
<circle class="st1" cx="48" cy="49.9" r="32"/>
<path class="st2" d="M63.2,42.4c-1,0.2-1.9,0.8-2.5,1.6c-0.2,0.3-0.7,0.4-1.1,0.2l0,0L59.5,44l-0.2-0.5L59,43
	c-0.1-0.1-0.1-0.2-0.2-0.3s-0.3-0.4-0.4-0.6l-0.1-0.2c-0.2-0.2-0.4-0.5-0.6-0.7L57.6,41l-0.2-0.3c-0.1-0.4,0.1-0.8,0.5-0.9l0,0
	c2.1-0.5,3.4-2.7,2.9-4.9s-2.7-3.4-4.9-2.9c-0.9,0.2-1.8,0.8-2.3,1.6c-0.6,0.9-0.8,1.9-0.6,2.9c0.1,0.4-0.2,0.8-0.6,0.9
	c0,0,0,0-0.1,0h-0.1l-0.5-0.2c-0.2-0.1-0.4-0.1-0.6-0.2h-0.4c-0.2-0.1-0.5-0.1-0.8-0.2h-0.2c-0.3,0-0.6-0.1-0.9-0.1h-0.2h-0.3
	c-0.4-0.2-0.5-0.6-0.3-1c0.7-1.1,0.8-2.6,0.3-3.8c-0.6-1.4-2-2.4-3.6-2.4c-2.2,0-4,1.7-4.1,3.9c0,0.3,0,0.6,0.1,0.9
	c0.2,1,0.8,1.9,1.6,2.5c0.3,0.3,0.4,0.7,0.2,1.1l0,0L42.3,38l-0.5,0.2l-0.5,0.3L41,38.8l-0.6,0.4l-0.2,0.1l-0.7,0.6L39.4,40
	l-0.3,0.2c-0.4,0.1-0.8-0.1-0.9-0.5l0,0c-0.5-2.2-2.6-3.5-4.7-3.1s-3.5,2.6-3.1,4.7c0.2,1,0.8,1.9,1.7,2.5c0.9,0.6,1.9,0.8,2.9,0.6
	c0.4-0.1,0.8,0.2,0.9,0.6c0,0,0,0,0,0.1v0.1c0,0-0.1,0.3-0.2,0.5s-0.1,0.4-0.2,0.6s-0.1,0.2-0.1,0.4s-0.1,0.5-0.2,0.8
	c0,0.1,0,0.2,0,0.2c0,0.3-0.1,0.6-0.1,0.9c0,0,0,0.1,0,0.2c0,0.1,0,0.2,0,0.3c-0.2,0.4-0.6,0.5-1,0.3l0,0c-1.9-1.2-4.3-0.6-5.5,1.3
	c-1.2,1.9-0.6,4.3,1.3,5.5c1.8,1.1,4.1,0.6,5.3-1.1c0.2-0.3,0.7-0.4,1.1-0.2l0,0c0,0,0,0.1,0.1,0.1l0.2,0.5l0.3,0.5l0.2,0.3
	c0.1,0.2,0.3,0.4,0.4,0.6l0.1,0.2c0.2,0.2,0.4,0.5,0.6,0.7l0.1,0.1l0.2,0.3c0.1,0.4-0.1,0.8-0.5,0.9l0,0c-2.1,0.5-3.5,2.7-3,4.8
	s2.7,3.5,4.8,3c2-0.5,3.4-2.5,3-4.5c-0.1-0.4,0.2-0.8,0.6-0.9c0,0,0,0,0.1,0h0.1l0.5,0.2c0.2,0.1,0.4,0.1,0.6,0.2l0.4,0.1
	c0.2,0.1,0.5,0.1,0.8,0.2h0.2c0.3,0,0.6,0.1,0.9,0.1h0.2h0.3c0.4,0.2,0.5,0.6,0.3,1c-0.7,1.1-0.8,2.6-0.3,3.8c0.7,2.1,2.9,3.3,5,2.6
	c2.1-0.7,3.3-2.9,2.6-5l0,0c-0.2-1-0.8-1.9-1.6-2.5c-0.3-0.2-0.4-0.7-0.2-1.1l0,0l0.1-0.1l0.5-0.2l0.5-0.3l0.3-0.2l0.6-0.4l0.2-0.1
	l0.7-0.6l0.1-0.1l0.3-0.2c0.4-0.1,0.8,0,1,0.4v0.1c0.5,2.1,2.7,3.4,4.9,2.9s3.4-2.7,2.9-4.9c-0.2-0.9-0.8-1.8-1.6-2.3
	c-0.9-0.6-1.9-0.8-2.9-0.6c-0.4,0.2-0.8,0.1-1-0.3c0-0.1-0.1-0.2-0.1-0.3v-0.1c0,0,0.1-0.3,0.2-0.5s0.1-0.4,0.2-0.6s0-0.2,0.1-0.4
	s0.1-0.5,0.2-0.8v-0.2c0-0.3,0.1-0.6,0.1-0.9c0,0,0-0.1,0-0.2s0-0.2,0-0.3c0.2-0.4,0.6-0.5,1-0.3c1.9,1.1,4.4,0.5,5.5-1.4
	c1.1-1.9,0.5-4.4-1.4-5.5C65,42.4,64,42.2,63,42.4H63.2z"/>
<path class="st3" d="M39.9,47.8c0,0,2.6,0.7,1.9,4.2"/>
<path class="st3" d="M51.1,42.8c0,0-0.2,3.9,4.3,4.1"/>
<path class="st3" d="M49.5,56.7c0,0-2.1-4.1-5.4-0.4"/>
<path class="st4" d="M47.9,17.7c-17.7,0-32.1,14.4-32.1,32.1C15.7,67.6,30.1,82,47.9,82S80,67.6,80,49.9l0,0
	C80,32.1,65.6,17.8,47.9,17.7z M77,49.9c0,7-2.5,13.8-7.2,19.1l-41-41.1c12.1-10.6,30.5-9.3,41.1,2.8C74.5,36,77,42.8,77,49.9z
	 M18.7,49.9c0-7.4,2.8-14.5,7.8-19.9l41.1,41.2c-11.7,11-30.2,10.4-41.1-1.4C21.5,64.4,18.7,57.3,18.7,49.9L18.7,49.9z"/>
</svg>
