<?xml version="1.0" encoding="utf-8"?>
<!-- Generator: Adobe Illustrator 24.3.0, SVG Export Plug-In . SVG Version: 6.00 Build 0)  -->
<svg version="1.1" id="圖層_1" xmlns="http://www.w3.org/2000/svg" xmlns:xlink="http://www.w3.org/1999/xlink" x="0px" y="0px"
	 viewBox="0 0 100 100" style="enable-background:new 0 0 100 100;" xml:space="preserve">
<style type="text/css">
	.st0{fill:#AFAFAF;}
	.st1{fill:#FFFFFF;}
	.st2{fill:#204A6A;}
</style>
<circle class="st0" cx="50" cy="49.1" r="38.3"/>
<circle class="st1" cx="50" cy="49.1" r="32"/>
<path class="st2" d="M50.2,48.5c-3.7,0-6.7-3-6.7-6.7s3-6.7,6.7-6.7s6.7,3,6.7,6.7S53.9,48.5,50.2,48.5z M50.2,36.6
	c-2.9,0-5.2,2.3-5.2,5.2s2.3,5.2,5.2,5.2s5.2-2.3,5.2-5.2S53.1,36.6,50.2,36.6z"/>
<path class="st2" d="M36,50.5c-3.2,0-5.8-2.6-5.8-5.8s2.6-5.8,5.8-5.8s5.8,2.6,5.8,5.8S39.2,50.5,36,50.5z M36,40.4
	c-2.4,0-4.3,1.9-4.3,4.3c0,2.4,1.9,4.3,4.3,4.3c2.4,0,4.3-1.9,4.3-4.3C40.3,42.4,38.4,40.4,36,40.4z"/>
<path class="st2" d="M27.3,62.5c-0.1-0.5-0.1-1-0.1-1.4c0-1.5,0.4-2.9,1-4.2c1.1-2.1,3-3.6,5.3-4.3s4.7-0.5,6.8,0.7l-0.7,1.3
	c-3.6-1.9-8.1-0.6-10,3c-0.6,1.1-0.9,2.3-0.9,3.5c0,0.4,0,0.8,0.1,1.2L27.3,62.5z"/>
<path class="st2" d="M64,50.5c-3.2,0-5.8-2.6-5.8-5.8s2.6-5.8,5.8-5.8c3.2,0,5.8,2.6,5.8,5.8S67.2,50.5,64,50.5z M64,40.4
	c-2.4,0-4.3,1.9-4.3,4.3c0,2.4,1.9,4.3,4.3,4.3c2.4,0,4.3-1.9,4.3-4.3C68.2,42.4,66.3,40.4,64,40.4z"/>
<path class="st2" d="M72.7,62.5l-1.5-0.3c0.1-0.4,0.1-0.8,0.1-1.2c0-1.2-0.3-2.4-0.9-3.5c-1.9-3.6-6.4-5-10-3l-0.7-1.3
	c2.1-1.1,4.5-1.4,6.8-0.7c2.3,0.7,4.1,2.2,5.3,4.3c0.7,1.3,1,2.7,1,4.2C72.8,61.5,72.8,62,72.7,62.5z"/>
<path class="st2" d="M62,62.3h-2c0-5.4-4.4-9.8-9.8-9.8s-9.8,4.4-9.8,9.8h-2c0-6.5,5.3-11.8,11.8-11.8S62,55.8,62,62.3z"/>
</svg>
