<?xml version="1.0" encoding="utf-8"?>
<!-- Generator: Adobe Illustrator 24.3.0, SVG Export Plug-In . SVG Version: 6.00 Build 0)  -->
<svg version="1.1" id="圖層_1" xmlns="http://www.w3.org/2000/svg" xmlns:xlink="http://www.w3.org/1999/xlink" x="0px" y="0px"
	 viewBox="0 0 100 100" style="enable-background:new 0 0 100 100;" xml:space="preserve">
<style type="text/css">
	.st0{fill:#AFAFAF;}
	.st1{fill:#FFFFFF;}
	.st2{fill:#FFFFFF;stroke:#000000;stroke-miterlimit:10;}
	.st3{fill:#FFFFFF;stroke:#000000;stroke-linecap:round;stroke-linejoin:round;}
	.st4{fill:#204A6A;}
</style>
<circle class="st0" cx="47.9" cy="49.9" r="38.3"/>
<circle class="st1" cx="47.9" cy="49.9" r="32"/>
<path class="st2" d="M30,35.3h34.4c1.3,0,2.3,1,2.3,2.3l0,0v23.2l0,0h-39l0,0V37.5C27.7,36.3,28.7,35.3,30,35.3L30,35.3z"/>
<path class="st3" d="M22.1,60.7h50.2l0,0v0.4c0,2.2-1.8,4-4,4H26.2c-2.2,0-4-1.8-4-4L22.1,60.7L22.1,60.7z"/>
<rect x="29.3" y="36.9" class="st4" width="35.7" height="22.1"/>
<path class="st3" d="M69.2,32.7H56c-1,0-1.8,0.8-1.8,1.8v11.1c0,1,0.8,1.9,1.8,1.9l0,0h2.4l-0.6,3.3l2.8-3.3h8.6
	c1,0,1.8-0.8,1.8-1.8V34.6C71,33.5,70.2,32.7,69.2,32.7L69.2,32.7z"/>
<polygon class="st4" points="59.7,36.3 59.7,43.4 65.6,39.8 "/>
<path class="st2" d="M36.4,55.8h7c2.7,0,4.8,2.2,4.8,4.8v0.1l0,0H31.5l0,0v-0.1C31.5,58,33.7,55.8,36.4,55.8z"/>
<path class="st2" d="M38,53.7h3.8l0,0v1.5c0,1-0.8,1.9-1.9,1.9l0,0c-1,0-1.9-0.8-1.9-1.9L38,53.7L38,53.7z"/>
<ellipse class="st2" cx="39.9" cy="49" rx="5.4" ry="5.6"/>
<path class="st2" d="M34.5,50.1c-1.1-0.7-1.7-1.9-1.8-3.1c-0.2-2.2,0.1-4.1,0.9-5c0.8-1.1,2.1-1.8,3.4-1.8c2-0.2,10-0.5,10.6,0.2
	s0,3.4-0.7,4s-1.7,1.5-2.5,1.5s-6.2-1.1-7-0.6S35.4,50.2,34.5,50.1z"/>
</svg>
